<?xml version="1.0" encoding="UTF-8" standalone="no"?>
<!DOCTYPE svg PUBLIC "-//W3C//DTD SVG 20010904//EN"
              "http://www.w3.org/TR/2001/REC-SVG-20010904/DTD/svg10.dtd">

<svg xmlns="http://www.w3.org/2000/svg"
     width="12.5in" height="9.47222in"
     viewBox="0 0 900 682">
  <path id="Unnamed"
        fill="none" stroke="black" stroke-width="1"
        d="M 331.64,10.55
           C 341.00,0.00 357.75,44.00 372.36,57.64
             405.25,46.75 483.14,40.43 528.00,58.50
             539.14,47.93 553.25,11.00 568.61,9.45
             577.75,11.00 550.11,49.57 540.75,63.00
             565.61,70.82 628.50,114.00 632.36,194.36
             632.36,194.36 269.25,194.75 269.25,194.75
             272.75,107.75 340.25,70.25 359.25,62.75
             357.50,55.50 327.00,19.00 330.00,11.75M 372.00,103.25
           C 388.75,99.25 408.50,139.50 372.75,142.50M 369.50,103.25
           C 350.00,101.80 342.95,141.22 370.25,143.25M 527.00,103.25
           C 546.00,101.50 563.92,136.51 528.75,143.50M 524.75,103.00
           C 507.00,106.00 496.25,138.75 526.50,143.00M 632.25,220.25
           C 632.25,220.25 268.75,220.00 268.75,220.00
             268.75,220.00 269.75,505.25 269.75,505.25
             276.50,526.75 278.25,546.75 339.75,546.25
             339.75,546.25 340.00,650.50 340.00,650.50
             344.88,683.41 405.25,684.00 413.50,651.75
             413.50,651.75 413.75,545.75 413.75,545.75
             413.75,545.75 487.25,545.75 487.25,545.75
             487.25,545.75 487.50,650.50 487.50,650.50
             492.32,683.03 556.00,683.50 561.25,652.00
             561.25,652.00 562.00,545.75 562.00,545.75
             596.50,547.25 624.00,542.75 632.00,506.50
             632.00,506.50 632.25,222.00 632.25,222.00M 203.25,222.75
           C 225.50,221.00 240.75,238.75 241.50,248.50
             241.50,248.50 241.25,436.75 241.25,436.75
             237.00,456.75 208.50,462.75 204.50,462.50
             186.75,463.00 168.75,449.00 167.50,436.75
             167.50,436.75 167.25,248.25 167.25,248.25
             174.25,224.75 200.41,222.45 201.00,223.00M 697.25,222.50
           C 709.25,221.25 733.00,231.50 734.75,247.75
             734.75,247.75 734.50,436.00 734.50,436.00
             734.25,452.50 702.47,466.13 698.50,461.25
             678.75,465.25 662.25,444.50 661.00,436.50
             661.00,436.50 661.25,246.25 661.25,246.25
             664.25,232.50 686.00,222.50 694.75,222.50" />
</svg>
