<svg width="800" height="800" xmlns="http://www.w3.org/2000/svg" viewBox="0 0 750 700">
    <path d="M331.64,10.55 C341,0 357.75,44 372.36,57.64 C405.25,46.75 483.14,40.43 528,58.5 C539.14,47.93 558.55,3.09 568.65,9.48 C578.82,13.45 550.11,49.57 540.75,63 C565.61,70.82 628.5,114 632.36,194.36 C632.36,194.36 269.25,194.75 269.25,194.75 C272.75,107.75 340.88,70.12 359.88,62.62 C366.75,65.75 321.36,16.82 331.62,10.56" fill="#A4C639" stroke="white" />
    <path d="M632.25,220.25 C632.25,220.25 268.75,220 268.75,220 C268.75,220 269.75,505.25 269.75,505.25 C276.54,526.79 281.68,550.11 339.75,546.25 C339.75,546.25 340,650.5 340,650.5 C344.88,683.41 405.25,684 413.5,651.75 C413.5,651.75 413.75,545.75 413.75,545.75 C413.75,545.75 487.25,545.75 487.25,545.75 C487.25,545.75 487.5,650.5 487.5,650.5 C492.32,683.03 556,683.5 561.25,652 C561.25,652 562,545.75 562,545.75 C596.5,547.25 624,542.75 632,506.5 C632,506.5 632.25,220.25 632.25,220.25" fill="#A4C639" stroke="white" />
    <path d="M203.25,222.75 C225.5,221 240.75,238.75 241.5,248.5 C241.5,248.5 241.25,436.75 241.25,436.75 C237,456.75 208.5,462.75 204.5,462.5 C186.75,463 168.75,449 167.5,436.75 C167.5,436.75 167.25,248.25 167.25,248.25 C174.25,224.75 195.12,223.12 203.24,222.76" fill="#A4C639" stroke="white" />
    <path d="M697.38,222.69 C710.75,222 733,231.5 734.75,247.75 C734.75,247.75 734.5,436 734.5,436 C734.25,452.5 705.49,462.04 699.25,462.08 C676.5,461.88 662.25,444.5 661,436.5 C661,436.5 661.25,246.25 661.25,246.25 C664.25,232.5 684.12,222.19 697.38,222.69" fill="#A4C639" stroke="white" />
    <circle cx="524" cy="103.47" r="15" fill="white" />
    <circle cx="368" cy="103.31" r="15" fill="white" />
</svg>
