<?xml version="1.0" encoding="UTF-8" standalone="no"?>
<!DOCTYPE svg PUBLIC "-//W3C//DTD SVG 20010904//EN"
              "http://www.w3.org/TR/2001/REC-SVG-20010904/DTD/svg10.dtd">

<svg xmlns="http://www.w3.org/2000/svg"
     width="12.5in" height="9.47222in"
     viewBox="0 0 900 682">
  <path id="android path"
        fill="none" stroke="black" stroke-width="1"
        d="M 331.64,10.55
           C 341.00,0.00 357.75,44.00 372.36,57.64
             405.25,46.75 483.14,40.43 528.00,58.50
             539.14,47.93 558.55,3.09 568.65,9.48
             578.82,13.45 550.11,49.57 540.75,63.00
             565.61,70.82 628.50,114.00 632.36,194.36
             632.36,194.36 269.25,194.75 269.25,194.75
             272.75,107.75 340.88,70.12 359.88,62.62
             366.75,65.75 321.36,16.82 331.62,10.56M 372.75,103.06
           C 391.69,101.38 406.50,138.69 372.81,143.19M 372.69,103.06
           C 347.19,103.50 345.00,143.12 372.81,143.19M 528.25,102.97
           C 546.31,101.75 562.36,136.91 527.69,143.38M 528.28,103.00
           C 505.73,102.45 496.75,139.81 527.62,143.38M 632.25,220.25
           C 632.25,220.25 268.75,220.00 268.75,220.00
             268.75,220.00 269.75,505.25 269.75,505.25
             276.54,526.79 281.68,550.11 339.75,546.25
             339.75,546.25 340.00,650.50 340.00,650.50
             344.88,683.41 405.25,684.00 413.50,651.75
             413.50,651.75 413.75,545.75 413.75,545.75
             413.75,545.75 487.25,545.75 487.25,545.75
             487.25,545.75 487.50,650.50 487.50,650.50
             492.32,683.03 556.00,683.50 561.25,652.00
             561.25,652.00 562.00,545.75 562.00,545.75
             596.50,547.25 624.00,542.75 632.00,506.50
             632.00,506.50 632.25,220.25 632.25,220.25M 203.25,222.75
           C 225.50,221.00 240.75,238.75 241.50,248.50
             241.50,248.50 241.25,436.75 241.25,436.75
             237.00,456.75 208.50,462.75 204.50,462.50
             186.75,463.00 168.75,449.00 167.50,436.75
             167.50,436.75 167.25,248.25 167.25,248.25
             174.25,224.75 195.12,223.12 203.24,222.76M 697.38,222.69
           C 710.75,222.00 733.00,231.50 734.75,247.75
             734.75,247.75 734.50,436.00 734.50,436.00
             734.25,452.50 705.49,462.04 699.25,462.08
             676.50,461.88 662.25,444.50 661.00,436.50
             661.00,436.50 661.25,246.25 661.25,246.25
             664.25,232.50 684.12,222.19 697.38,222.69" />
</svg>
